<svg xmlns="http://www.w3.org/2000/svg" viewBox="0 0 128 128" width="128" height="128">
  <defs>
    <linearGradient id="bg" x1="0%" y1="0%" x2="100%" y2="100%">
      <stop offset="0%" style="stop-color:#4FC3F7;stop-opacity:1" />
      <stop offset="100%" style="stop-color:#1565C0;stop-opacity:1" />
    </linearGradient>
  </defs>
  <!-- Background rounded rectangle -->
  <rect x="4" y="4" width="120" height="120" rx="20" ry="20" fill="url(#bg)" />
  <!-- Folder shape -->
  <path d="M28 38 L28 90 Q28 94 32 94 L96 94 Q100 94 100 90 L100 50 Q100 46 96 46 L62 46 L56 38 Z" fill="rgba(255,255,255,0.25)" stroke="white" stroke-width="2"/>
  <!-- Rename arrow -->
  <path d="M44 67 L74 67" stroke="white" stroke-width="3.5" stroke-linecap="round"/>
  <path d="M68 60 L76 67 L68 74" stroke="white" stroke-width="3.5" stroke-linecap="round" stroke-linejoin="round" fill="none"/>
  <!-- Small file icon -->
  <rect x="82" y="56" width="12" height="16" rx="2" fill="white" opacity="0.9"/>
  <path d="M88 56 L94 62" stroke="white" stroke-width="1" opacity="0.5"/>
  <!-- Pencil/edit indicator -->
  <path d="M38 78 L34 86 L42 82 Z" fill="white" opacity="0.8"/>
  <line x1="38" y1="78" x2="50" y2="66" stroke="white" stroke-width="2.5" stroke-linecap="round" opacity="0.8"/>
</svg>
