<svg xmlns="http://www.w3.org/2000/svg" viewBox="0 0 128 128" width="512" height="512">
  <defs>
    <linearGradient id="shield" x1="64" y1="6" x2="64" y2="122" gradientUnits="userSpaceOnUse">
      <stop offset="0" stop-color="#E63B60"/>
      <stop offset="1" stop-color="#C3002F"/>
    </linearGradient>
  </defs>

  <!-- Original Angular-inspired shield (evokes Angular, not the official trademark) -->
  <path d="M64 6 L114 23 L106 93 L64 122 L22 93 L14 23 Z" fill="url(#shield)"/>
  <path d="M64 6 L114 23 L106 93 L64 122 Z" fill="#000000" opacity="0.10"/>

  <!-- Circular "rename" arrows -->
  <g stroke="#FFFFFF" stroke-width="6" stroke-linecap="round" fill="none">
    <path d="M42 56 A23 23 0 0 1 86 50"/>
    <path d="M86 72 A23 23 0 0 1 42 78"/>
  </g>
  <path d="M88 36 L90 56 L70 50 Z" fill="#FFFFFF"/>
  <path d="M40 92 L38 72 L58 78 Z" fill="#FFFFFF"/>

  <!-- Subtle 'A' mark in the center -->
  <path d="M64 44 L54 92 L60 92 L62 80 L66 80 L68 92 L74 92 Z M62.6 74 L64 64 L65.4 74 Z" fill="#FFFFFF" opacity="0.92"/>
</svg>
